<svg xmlns="http://www.w3.org/2000/svg" viewBox="0 0 640 400" role="img" aria-label="The Agent Starter Kit bundle containing all three products at a discounted price">
  <defs>
    <linearGradient id="bBg" x1="0" y1="0" x2="1" y2="1">
      <stop offset="0" stop-color="#0B2440"/><stop offset="1" stop-color="#163E78"/>
    </linearGradient>
    <filter id="bSh" x="-30%" y="-30%" width="160%" height="160%">
      <feDropShadow dx="0" dy="10" stdDeviation="16" flood-color="#02060F" flood-opacity="0.35"/>
    </filter>
  </defs>
  <rect width="640" height="400" fill="url(#bBg)"/>
  <text x="44" y="62" font-family="'Plus Jakarta Sans',system-ui,sans-serif" font-size="28" font-weight="800" fill="#FFFFFF">The Agent Starter Kit</text>
  <text x="44" y="90" font-family="'DM Sans',system-ui,sans-serif" font-size="16" fill="#9DB3D6">All three tools, one bundle</text>

  <!-- included items -->
  <g font-family="'DM Sans',system-ui,sans-serif">
    <g transform="translate(44,122)"><g filter="url(#bSh)"><rect width="360" height="56" rx="14" fill="#FFFFFF"/></g><circle cx="32" cy="28" r="16" fill="#2563EB"/><path d="M25 28l5 5 9-10" fill="none" stroke="#FFFFFF" stroke-width="3" stroke-linecap="round" stroke-linejoin="round"/><text x="62" y="26" font-size="15" font-weight="700" fill="#0B2440">Database Reactivation Pack</text><text x="62" y="44" font-size="12" fill="#7A879B">5-touch text + email sequence</text><text x="344" y="36" text-anchor="end" font-size="14" font-weight="700" fill="#52617A">$37</text></g>
    <g transform="translate(44,186)"><g filter="url(#bSh)"><rect width="360" height="56" rx="14" fill="#FFFFFF"/></g><circle cx="32" cy="28" r="16" fill="#2563EB"/><path d="M25 28l5 5 9-10" fill="none" stroke="#FFFFFF" stroke-width="3" stroke-linecap="round" stroke-linejoin="round"/><text x="62" y="26" font-size="15" font-weight="700" fill="#0B2440">Google Review Booster Kit</text><text x="62" y="44" font-size="12" fill="#7A879B">QR cards, scripts + ranking guide</text><text x="344" y="36" text-anchor="end" font-size="14" font-weight="700" fill="#52617A">$37</text></g>
    <g transform="translate(44,250)"><g filter="url(#bSh)"><rect width="360" height="56" rx="14" fill="#FFFFFF"/></g><circle cx="32" cy="28" r="16" fill="#2563EB"/><path d="M25 28l5 5 9-10" fill="none" stroke="#FFFFFF" stroke-width="3" stroke-linecap="round" stroke-linejoin="round"/><text x="62" y="26" font-size="15" font-weight="700" fill="#0B2440">90-Day Content Calendar</text><text x="62" y="44" font-size="12" fill="#7A879B">90 days of captions + schedule</text><text x="344" y="36" text-anchor="end" font-size="14" font-weight="700" fill="#52617A">$19</text></g>
  </g>

  <!-- price block -->
  <g transform="translate(436,140)">
    <g filter="url(#bSh)"><rect width="160" height="166" rx="18" fill="#E6A93B"/></g>
    <text x="80" y="44" text-anchor="middle" font-family="'DM Sans',system-ui,sans-serif" font-size="14" fill="#5A4106">Bundle price</text>
    <text x="80" y="92" text-anchor="middle" font-family="'Plus Jakarta Sans',system-ui,sans-serif" font-size="46" font-weight="800" fill="#0B2440">$67</text>
    <text x="80" y="120" text-anchor="middle" font-family="'DM Sans',system-ui,sans-serif" font-size="14" fill="#5A4106" text-decoration="line-through">$93 value</text>
    <rect x="34" y="134" width="92" height="22" rx="11" fill="#0B2440"/>
    <text x="80" y="149" text-anchor="middle" font-family="'DM Sans',system-ui,sans-serif" font-size="12" font-weight="700" fill="#F6D88A">Save $26</text>
  </g>
  <text x="44" y="336" font-family="'DM Sans',system-ui,sans-serif" font-size="13" fill="#9DB3D6">Instant download · lifetime access · editable templates</text>
</svg>
